<svg xmlns="http://www.w3.org/2000/svg" xml:space="preserve" style="fill-rule:evenodd;clip-rule:evenodd;stroke-linejoin:round;stroke-miterlimit:2" viewBox="0 0 1024 1024">
  <path d="M538.32 480.63c17.73 16.59 31.41 34.12 44.41 54.01-11.16 23.77-24.17 44.99-40.91 66.49-12.53-20.22-23.94-37.91-38.13-55.14-14.64-16.66-30.67-31.27-50.7-40.83-18.68-10.03-37.43-13.39-58.53-13.86-54.77-1.22-105.25 28.77-126.29 80.18-16.86 41.19-15.68 87.8 2.34 128.26 7.61 17.1 19.62 31.03 34.14 42.16 30.27 23.19 72.82 22.14 107.19 8.32 33.07-13.3 61.08-32.83 87.39-56.96 56.59-51.89 99.5-115.26 128.55-186.31 15.12-36.97 26.43-73.66 37.09-112.12 14.67-52.95 29.11-109 65.04-151.75 27.1-32.24 65.78-50.37 108.15-49.38l.13 69.86c-18.8-.44-34.22 5.94-47.89 17.66-9.96 9.49-17.43 20.55-24.38 32.76-10.87 21.65-18.51 43.56-25.04 66.9l-20.06 71.7c-6.04 21.57-13.4 41.45-21.37 62.57-21.19 56.15-49.41 108.37-86.06 156.05-49.69 64.65-123.81 133.13-204.55 153.19-38.96 9.68-78.26 8.12-114.68-8.68-96.57-44.55-127.4-157.17-97.23-253.23 24.04-76.53 89.65-129.65 168.78-139.19 63.64-7.67 125.79 12.26 172.62 57.35zm214.86 264.89c21.17-2 38.05 10.28 41.25 29.8 3.01 18.35-8.63 36.85-28.06 41.13-34.86 3.33-69.06-5.17-97.51-25.83-24.89-18.08-45.39-40.86-61.02-67.26 16.33-18.91 30.84-36.9 44.36-57.42l21.33 31.57c18.31 24.17 45.16 51.28 79.64 48.02z" style="fill:#ef6609;fill-rule:nonzero"/>
</svg>
